<mxfile host="app.diagrams.net" modified="2024-04-10T15:11:39.295Z" agent="Mozilla/5.0 (Windows NT 10.0; Win64; x64) AppleWebKit/537.36 (KHTML, like Gecko) Chrome/121.0.0.0 Safari/537.36 OPR/107.0.0.0" etag="tWNUkt4luDna8dygbqxR" version="24.2.3" type="device">
  <diagram name="Página-1" id="0SeqWyHHG15l9BgGzYhG">
    <mxGraphModel dx="1258" dy="777" grid="1" gridSize="10" guides="1" tooltips="1" connect="1" arrows="1" fold="1" page="1" pageScale="1" pageWidth="827" pageHeight="1169" math="0" shadow="0">
      <root>
        <mxCell id="0" />
        <mxCell id="1" parent="0" />
        <mxCell id="dZsoKdkt2LSGwNKG-obv-9" value="Usuario" style="swimlane;html=1;startSize=20;horizontal=0;" vertex="1" parent="1">
          <mxGeometry x="10" y="50" width="807" height="120" as="geometry" />
        </mxCell>
        <mxCell id="dZsoKdkt2LSGwNKG-obv-5" value="El usuario&amp;nbsp;&lt;div&gt;requiere&lt;div&gt;registrarse&lt;/div&gt;&lt;/div&gt;" style="points=[[0.145,0.145,0],[0.5,0,0],[0.855,0.145,0],[1,0.5,0],[0.855,0.855,0],[0.5,1,0],[0.145,0.855,0],[0,0.5,0]];shape=mxgraph.bpmn.event;html=1;verticalLabelPosition=bottom;labelBackgroundColor=#ffffff;verticalAlign=top;align=center;perimeter=ellipsePerimeter;outlineConnect=0;aspect=fixed;outline=standard;symbol=general;" vertex="1" parent="dZsoKdkt2LSGwNKG-obv-9">
          <mxGeometry x="50" y="10" width="50" height="50" as="geometry" />
        </mxCell>
        <mxCell id="dZsoKdkt2LSGwNKG-obv-25" value="Pulsa el botón&lt;div&gt;de registro&amp;nbsp;&lt;/div&gt;" style="points=[[0.25,0.25,0],[0.5,0,0],[0.75,0.25,0],[1,0.5,0],[0.75,0.75,0],[0.5,1,0],[0.25,0.75,0],[0,0.5,0]];shape=mxgraph.bpmn.gateway2;html=1;verticalLabelPosition=bottom;labelBackgroundColor=#ffffff;verticalAlign=top;align=center;perimeter=rhombusPerimeter;outlineConnect=0;outline=none;symbol=none;gwType=exclusive;" vertex="1" parent="dZsoKdkt2LSGwNKG-obv-9">
          <mxGeometry x="300" y="20" width="50" height="50" as="geometry" />
        </mxCell>
        <mxCell id="dZsoKdkt2LSGwNKG-obv-28" value="Pulsa el botón de Loguin&amp;nbsp;" style="points=[[0.25,0.25,0],[0.5,0,0],[0.75,0.25,0],[1,0.5,0],[0.75,0.75,0],[0.5,1,0],[0.25,0.75,0],[0,0.5,0]];shape=mxgraph.bpmn.gateway2;html=1;verticalLabelPosition=bottom;labelBackgroundColor=#ffffff;verticalAlign=top;align=center;perimeter=rhombusPerimeter;outlineConnect=0;outline=none;symbol=none;gwType=exclusive;" vertex="1" parent="dZsoKdkt2LSGwNKG-obv-9">
          <mxGeometry x="420" y="20" width="50" height="50" as="geometry" />
        </mxCell>
        <mxCell id="dZsoKdkt2LSGwNKG-obv-29" style="edgeStyle=orthogonalEdgeStyle;rounded=0;orthogonalLoop=1;jettySize=auto;html=1;exitX=1;exitY=0.5;exitDx=0;exitDy=0;exitPerimeter=0;entryX=0;entryY=0.5;entryDx=0;entryDy=0;entryPerimeter=0;" edge="1" parent="dZsoKdkt2LSGwNKG-obv-9" source="dZsoKdkt2LSGwNKG-obv-25" target="dZsoKdkt2LSGwNKG-obv-28">
          <mxGeometry relative="1" as="geometry" />
        </mxCell>
        <mxCell id="dZsoKdkt2LSGwNKG-obv-30" value="NO" style="edgeLabel;html=1;align=center;verticalAlign=middle;resizable=0;points=[];" vertex="1" connectable="0" parent="dZsoKdkt2LSGwNKG-obv-29">
          <mxGeometry x="-0.36" y="2" relative="1" as="geometry">
            <mxPoint as="offset" />
          </mxGeometry>
        </mxCell>
        <mxCell id="dZsoKdkt2LSGwNKG-obv-27" style="edgeStyle=orthogonalEdgeStyle;rounded=0;orthogonalLoop=1;jettySize=auto;html=1;exitX=1;exitY=0.5;exitDx=0;exitDy=0;exitPerimeter=0;entryX=0;entryY=0.5;entryDx=0;entryDy=0;entryPerimeter=0;dashed=1;" edge="1" parent="1" source="dZsoKdkt2LSGwNKG-obv-5" target="dZsoKdkt2LSGwNKG-obv-31">
          <mxGeometry relative="1" as="geometry">
            <mxPoint x="310" y="280" as="targetPoint" />
          </mxGeometry>
        </mxCell>
        <mxCell id="dZsoKdkt2LSGwNKG-obv-33" style="edgeStyle=orthogonalEdgeStyle;rounded=0;orthogonalLoop=1;jettySize=auto;html=1;exitX=1;exitY=0.5;exitDx=0;exitDy=0;exitPerimeter=0;entryX=0;entryY=0.5;entryDx=0;entryDy=0;entryPerimeter=0;dashed=1;" edge="1" parent="1" source="dZsoKdkt2LSGwNKG-obv-31" target="dZsoKdkt2LSGwNKG-obv-25">
          <mxGeometry relative="1" as="geometry" />
        </mxCell>
        <mxCell id="dZsoKdkt2LSGwNKG-obv-35" style="edgeStyle=orthogonalEdgeStyle;rounded=0;orthogonalLoop=1;jettySize=auto;html=1;exitX=0.5;exitY=1;exitDx=0;exitDy=0;exitPerimeter=0;dashed=1;" edge="1" parent="1" source="dZsoKdkt2LSGwNKG-obv-25" target="dZsoKdkt2LSGwNKG-obv-34">
          <mxGeometry relative="1" as="geometry" />
        </mxCell>
        <mxCell id="dZsoKdkt2LSGwNKG-obv-36" value="Si" style="edgeLabel;html=1;align=center;verticalAlign=middle;resizable=0;points=[];" vertex="1" connectable="0" parent="dZsoKdkt2LSGwNKG-obv-35">
          <mxGeometry x="0.1515" y="2" relative="1" as="geometry">
            <mxPoint as="offset" />
          </mxGeometry>
        </mxCell>
        <mxCell id="dZsoKdkt2LSGwNKG-obv-10" value="Pagina web" style="swimlane;html=1;startSize=20;horizontal=0;" vertex="1" parent="1">
          <mxGeometry x="10" y="230" width="807" height="120" as="geometry" />
        </mxCell>
        <mxCell id="dZsoKdkt2LSGwNKG-obv-31" value="&lt;span style=&quot;text-wrap: nowrap; background-color: rgb(255, 255, 255);&quot;&gt;El usuario pulsa&lt;/span&gt;&lt;div style=&quot;text-wrap: nowrap;&quot;&gt;el botón de&amp;nbsp;&lt;/div&gt;&lt;div style=&quot;text-wrap: nowrap;&quot;&gt;Loguin/Registro&lt;/div&gt;" style="points=[[0.25,0,0],[0.5,0,0],[0.75,0,0],[1,0.25,0],[1,0.5,0],[1,0.75,0],[0.75,1,0],[0.5,1,0],[0.25,1,0],[0,0.75,0],[0,0.5,0],[0,0.25,0]];shape=mxgraph.bpmn.task;whiteSpace=wrap;rectStyle=rounded;size=10;html=1;container=1;expand=0;collapsible=0;taskMarker=abstract;" vertex="1" parent="dZsoKdkt2LSGwNKG-obv-10">
          <mxGeometry x="140" y="20" width="120" height="80" as="geometry" />
        </mxCell>
        <mxCell id="dZsoKdkt2LSGwNKG-obv-34" value="Introduce&lt;div&gt;datos&lt;/div&gt;&lt;div&gt;registro&lt;/div&gt;" style="points=[[0.25,0,0],[0.5,0,0],[0.75,0,0],[1,0.25,0],[1,0.5,0],[1,0.75,0],[0.75,1,0],[0.5,1,0],[0.25,1,0],[0,0.75,0],[0,0.5,0],[0,0.25,0]];shape=mxgraph.bpmn.task;whiteSpace=wrap;rectStyle=rounded;size=10;html=1;container=1;expand=0;collapsible=0;taskMarker=abstract;" vertex="1" parent="dZsoKdkt2LSGwNKG-obv-10">
          <mxGeometry x="290" y="15" width="120" height="80" as="geometry" />
        </mxCell>
        <mxCell id="dZsoKdkt2LSGwNKG-obv-37" value="Datos validos" style="points=[[0.25,0.25,0],[0.5,0,0],[0.75,0.25,0],[1,0.5,0],[0.75,0.75,0],[0.5,1,0],[0.25,0.75,0],[0,0.5,0]];shape=mxgraph.bpmn.gateway2;html=1;verticalLabelPosition=bottom;labelBackgroundColor=#ffffff;verticalAlign=top;align=center;perimeter=rhombusPerimeter;outlineConnect=0;outline=none;symbol=none;gwType=exclusive;" vertex="1" parent="dZsoKdkt2LSGwNKG-obv-10">
          <mxGeometry x="430" y="30" width="50" height="50" as="geometry" />
        </mxCell>
        <mxCell id="dZsoKdkt2LSGwNKG-obv-38" style="edgeStyle=orthogonalEdgeStyle;rounded=0;orthogonalLoop=1;jettySize=auto;html=1;exitX=1;exitY=0.5;exitDx=0;exitDy=0;exitPerimeter=0;entryX=0;entryY=0.5;entryDx=0;entryDy=0;entryPerimeter=0;" edge="1" parent="dZsoKdkt2LSGwNKG-obv-10" source="dZsoKdkt2LSGwNKG-obv-34" target="dZsoKdkt2LSGwNKG-obv-37">
          <mxGeometry relative="1" as="geometry" />
        </mxCell>
        <mxCell id="dZsoKdkt2LSGwNKG-obv-39" style="edgeStyle=orthogonalEdgeStyle;rounded=0;orthogonalLoop=1;jettySize=auto;html=1;exitX=0.25;exitY=0.75;exitDx=0;exitDy=0;exitPerimeter=0;entryX=0.5;entryY=1;entryDx=0;entryDy=0;entryPerimeter=0;" edge="1" parent="dZsoKdkt2LSGwNKG-obv-10" source="dZsoKdkt2LSGwNKG-obv-37" target="dZsoKdkt2LSGwNKG-obv-34">
          <mxGeometry relative="1" as="geometry">
            <Array as="points">
              <mxPoint x="443" y="160" />
              <mxPoint x="350" y="160" />
            </Array>
          </mxGeometry>
        </mxCell>
        <mxCell id="dZsoKdkt2LSGwNKG-obv-40" value="NO" style="edgeLabel;html=1;align=center;verticalAlign=middle;resizable=0;points=[];" vertex="1" connectable="0" parent="dZsoKdkt2LSGwNKG-obv-39">
          <mxGeometry x="-0.0902" y="-1" relative="1" as="geometry">
            <mxPoint as="offset" />
          </mxGeometry>
        </mxCell>
        <mxCell id="dZsoKdkt2LSGwNKG-obv-41" value="Introduce&lt;div&gt;datos&lt;/div&gt;&lt;div&gt;login&lt;/div&gt;" style="points=[[0.25,0,0],[0.5,0,0],[0.75,0,0],[1,0.25,0],[1,0.5,0],[1,0.75,0],[0.75,1,0],[0.5,1,0],[0.25,1,0],[0,0.75,0],[0,0.5,0],[0,0.25,0]];shape=mxgraph.bpmn.task;whiteSpace=wrap;rectStyle=rounded;size=10;html=1;container=1;expand=0;collapsible=0;taskMarker=abstract;" vertex="1" parent="dZsoKdkt2LSGwNKG-obv-10">
          <mxGeometry x="510" y="20" width="120" height="80" as="geometry" />
        </mxCell>
        <mxCell id="dZsoKdkt2LSGwNKG-obv-43" value="Sesión&amp;nbsp;&lt;div&gt;iniciada&lt;/div&gt;" style="points=[[0.145,0.145,0],[0.5,0,0],[0.855,0.145,0],[1,0.5,0],[0.855,0.855,0],[0.5,1,0],[0.145,0.855,0],[0,0.5,0]];shape=mxgraph.bpmn.event;html=1;verticalLabelPosition=bottom;labelBackgroundColor=#ffffff;verticalAlign=top;align=center;perimeter=ellipsePerimeter;outlineConnect=0;aspect=fixed;outline=end;symbol=terminate;" vertex="1" parent="dZsoKdkt2LSGwNKG-obv-10">
          <mxGeometry x="740" y="30" width="50" height="50" as="geometry" />
        </mxCell>
        <mxCell id="dZsoKdkt2LSGwNKG-obv-42" style="edgeStyle=orthogonalEdgeStyle;rounded=0;orthogonalLoop=1;jettySize=auto;html=1;exitX=1;exitY=0.5;exitDx=0;exitDy=0;exitPerimeter=0;dashed=1;" edge="1" parent="1" source="dZsoKdkt2LSGwNKG-obv-28" target="dZsoKdkt2LSGwNKG-obv-41">
          <mxGeometry relative="1" as="geometry" />
        </mxCell>
        <mxCell id="dZsoKdkt2LSGwNKG-obv-55" value="Base de datos" style="swimlane;html=1;startSize=20;fontStyle=0;collapsible=0;horizontal=0;swimlaneLine=1;swimlaneFillColor=#ffffff;strokeWidth=2;whiteSpace=wrap;" vertex="1" parent="1">
          <mxGeometry y="470" width="810" height="100" as="geometry" />
        </mxCell>
        <mxCell id="dZsoKdkt2LSGwNKG-obv-56" value="Datos añadidos" style="points=[[0.25,0,0],[0.5,0,0],[0.75,0,0],[1,0.25,0],[1,0.5,0],[1,0.75,0],[0.75,1,0],[0.5,1,0],[0.25,1,0],[0,0.75,0],[0,0.5,0],[0,0.25,0]];shape=mxgraph.bpmn.task;whiteSpace=wrap;rectStyle=rounded;size=10;html=1;container=1;expand=0;collapsible=0;taskMarker=abstract;" vertex="1" parent="dZsoKdkt2LSGwNKG-obv-55">
          <mxGeometry x="430" y="10" width="120" height="80" as="geometry" />
        </mxCell>
        <mxCell id="dZsoKdkt2LSGwNKG-obv-49" value="Datos validos" style="points=[[0.25,0.25,0],[0.5,0,0],[0.75,0.25,0],[1,0.5,0],[0.75,0.75,0],[0.5,1,0],[0.25,0.75,0],[0,0.5,0]];shape=mxgraph.bpmn.gateway2;html=1;verticalLabelPosition=bottom;labelBackgroundColor=#ffffff;verticalAlign=top;align=center;perimeter=rhombusPerimeter;outlineConnect=0;outline=none;symbol=none;gwType=exclusive;" vertex="1" parent="dZsoKdkt2LSGwNKG-obv-55">
          <mxGeometry x="640" y="25" width="50" height="50" as="geometry" />
        </mxCell>
        <mxCell id="dZsoKdkt2LSGwNKG-obv-58" style="edgeStyle=orthogonalEdgeStyle;rounded=0;orthogonalLoop=1;jettySize=auto;html=1;exitX=0.75;exitY=0.75;exitDx=0;exitDy=0;exitPerimeter=0;entryX=0.5;entryY=0;entryDx=0;entryDy=0;entryPerimeter=0;dashed=1;" edge="1" parent="1" source="dZsoKdkt2LSGwNKG-obv-37" target="dZsoKdkt2LSGwNKG-obv-56">
          <mxGeometry relative="1" as="geometry" />
        </mxCell>
        <mxCell id="dZsoKdkt2LSGwNKG-obv-59" value="Si" style="edgeLabel;html=1;align=center;verticalAlign=middle;resizable=0;points=[];" vertex="1" connectable="0" parent="dZsoKdkt2LSGwNKG-obv-58">
          <mxGeometry x="0.2688" y="-2" relative="1" as="geometry">
            <mxPoint as="offset" />
          </mxGeometry>
        </mxCell>
        <mxCell id="dZsoKdkt2LSGwNKG-obv-51" style="edgeStyle=orthogonalEdgeStyle;rounded=0;orthogonalLoop=1;jettySize=auto;html=1;exitX=1;exitY=0.5;exitDx=0;exitDy=0;exitPerimeter=0;entryX=0;entryY=0.5;entryDx=0;entryDy=0;entryPerimeter=0;dashed=1;" edge="1" parent="1" source="dZsoKdkt2LSGwNKG-obv-49" target="dZsoKdkt2LSGwNKG-obv-43">
          <mxGeometry relative="1" as="geometry" />
        </mxCell>
        <mxCell id="dZsoKdkt2LSGwNKG-obv-52" value="Si" style="edgeLabel;html=1;align=center;verticalAlign=middle;resizable=0;points=[];" vertex="1" connectable="0" parent="dZsoKdkt2LSGwNKG-obv-51">
          <mxGeometry x="-0.1429" y="2" relative="1" as="geometry">
            <mxPoint as="offset" />
          </mxGeometry>
        </mxCell>
        <mxCell id="dZsoKdkt2LSGwNKG-obv-53" style="edgeStyle=orthogonalEdgeStyle;rounded=0;orthogonalLoop=1;jettySize=auto;html=1;entryX=0.5;entryY=1;entryDx=0;entryDy=0;entryPerimeter=0;exitX=0;exitY=0.5;exitDx=0;exitDy=0;exitPerimeter=0;dashed=1;" edge="1" parent="1" source="dZsoKdkt2LSGwNKG-obv-49" target="dZsoKdkt2LSGwNKG-obv-41">
          <mxGeometry relative="1" as="geometry">
            <mxPoint x="610" y="505" as="sourcePoint" />
            <Array as="points">
              <mxPoint x="580" y="520" />
            </Array>
          </mxGeometry>
        </mxCell>
        <mxCell id="dZsoKdkt2LSGwNKG-obv-54" value="No" style="edgeLabel;html=1;align=center;verticalAlign=middle;resizable=0;points=[];" vertex="1" connectable="0" parent="dZsoKdkt2LSGwNKG-obv-53">
          <mxGeometry x="-0.219" y="1" relative="1" as="geometry">
            <mxPoint as="offset" />
          </mxGeometry>
        </mxCell>
        <mxCell id="dZsoKdkt2LSGwNKG-obv-61" style="edgeStyle=orthogonalEdgeStyle;rounded=0;orthogonalLoop=1;jettySize=auto;html=1;exitX=1;exitY=0.5;exitDx=0;exitDy=0;exitPerimeter=0;entryX=0.5;entryY=0;entryDx=0;entryDy=0;entryPerimeter=0;dashed=1;dashPattern=8 8;" edge="1" parent="1" source="dZsoKdkt2LSGwNKG-obv-41" target="dZsoKdkt2LSGwNKG-obv-49">
          <mxGeometry relative="1" as="geometry" />
        </mxCell>
        <mxCell id="dZsoKdkt2LSGwNKG-obv-62" style="edgeStyle=orthogonalEdgeStyle;rounded=0;orthogonalLoop=1;jettySize=auto;html=1;exitX=0.5;exitY=1;exitDx=0;exitDy=0;exitPerimeter=0;dashed=1;" edge="1" parent="1" source="dZsoKdkt2LSGwNKG-obv-56" target="dZsoKdkt2LSGwNKG-obv-43">
          <mxGeometry relative="1" as="geometry">
            <Array as="points">
              <mxPoint x="480" y="610" />
              <mxPoint x="775" y="610" />
            </Array>
          </mxGeometry>
        </mxCell>
      </root>
    </mxGraphModel>
  </diagram>
</mxfile>
